<svg width="12" height="14" viewBox="0 0 12 14" fill="none" xmlns="http://www.w3.org/2000/svg">
<path d="M10.6534 6.125H10.0142V4.15625C10.0142 1.86484 8.1978 0 5.96591 0C3.73402 0 1.91761 1.86484 1.91761 4.15625V6.125H1.27841C0.572621 6.125 0 6.71289 0 7.4375V12.6875C0 13.4121 0.572621 14 1.27841 14H10.6534C11.3592 14 11.9318 13.4121 11.9318 12.6875V7.4375C11.9318 6.71289 11.3592 6.125 10.6534 6.125ZM7.88352 6.125H4.0483V4.15625C4.0483 3.0707 4.90856 2.1875 5.96591 2.1875C7.02326 2.1875 7.88352 3.0707 7.88352 4.15625V6.125Z" fill="#9CA3AF"/>
</svg>
